<svg width="264" height="759" viewBox="0 0 264 759" fill="none" xmlns="http://www.w3.org/2000/svg">
<path fill-rule="evenodd" clip-rule="evenodd" d="M204.05 0.247448H194.176V12.2159H189.391C184.098 12.2159 180.331 8.70385 180.331 3.71566C180.331 2.45748 180.571 1.28998 181.014 0.247448H170.499C170.27 1.35833 170.151 2.51673 170.151 3.71566C170.151 13.9465 178.804 21.1743 191.02 21.1743L204.05 21.1743V0.247448Z" fill="white"/>
<path fill-rule="evenodd" clip-rule="evenodd" d="M169 110.609L186.313 138.152L198.065 130.765L190.07 118.046L193.705 115.762L210.484 122.959L223.872 114.543L204.938 106.472C208.52 100.877 208.697 94.166 204.912 88.1446C204.895 88.1185 204.879 88.0924 204.862 88.0664L192.746 95.6826C192.763 95.7083 192.779 95.7343 192.796 95.7605C194.225 98.0339 193.268 100.949 190.482 102.701L183.273 107.232L180.752 103.222L169 110.609Z" fill="white"/>
<path fill-rule="evenodd" clip-rule="evenodd" d="M-0.000411129 306.223C0.00364625 306.243 0.00773027 306.263 0.011841 306.283C2.88717 320.39 17.903 329.739 32.846 326.693C47.789 323.647 57.9481 309.168 55.0728 295.061C55.0687 295.04 55.0646 295.02 55.0604 295L40.3382 298.001C40.3424 298.021 40.3465 298.041 40.3506 298.061C41.8106 305.224 37.1434 312.418 30.224 313.829C23.3045 315.239 16.194 310.446 14.734 303.283C14.7299 303.262 14.7259 303.242 14.7218 303.222L-0.000411129 306.223Z" fill="white"/>
<path fill-rule="evenodd" clip-rule="evenodd" d="M243.193 200C243.149 200 243.106 200 243.063 200C212.669 200 187 227.721 187 260.629C187 293.538 212.669 321.259 243.063 321.259C243.106 321.259 243.149 321.259 243.193 321.259V288.836C243.149 288.836 243.106 288.837 243.063 288.837C227.63 288.837 214.716 275.868 214.716 260.629C214.716 245.391 227.63 232.422 243.063 232.422C243.106 232.422 243.149 232.422 243.193 232.422V200Z" fill="white"/>
<path fill-rule="evenodd" clip-rule="evenodd" d="M163 596.457L182.625 616.162L191.075 607.747L174.964 591.57L202.748 596.121L211.198 587.706L191.573 568L183.123 576.415L188.783 582.098L179.022 580.499L163 596.457Z" fill="white"/>
<path d="M111.702 234.448C122.939 234.448 132.405 225.634 132.405 215.197C132.405 204.76 122.939 196 111.702 196C100.465 196 90.9995 204.76 90.9995 215.197C90.9995 225.634 100.465 234.448 111.702 234.448ZM111.702 224.931C106.499 224.931 102.07 220.496 102.07 215.197C102.07 209.952 106.499 205.517 111.702 205.517C116.906 205.517 121.334 209.952 121.334 215.197C121.334 220.496 116.906 224.931 111.702 224.931Z" fill="white"/>
<path d="M168.625 459.789L179.19 433.099C189.095 408.077 181.203 384.452 160.247 376.156C139.291 367.861 117.47 379.724 107.565 404.746L96.9995 431.436L168.625 459.789ZM158.282 432.3L123.356 418.474L127.235 408.673C131.527 397.831 141.775 392.963 151.992 397.008C162.21 401.052 166.454 411.656 162.162 422.499L158.282 432.3Z" fill="white"/>
<path d="M240.05 758.864L241.356 743.867C246.077 745.151 250.799 743.81 254.136 739.85C258.936 734.153 257.902 726.443 251.68 721.2L238.387 710L215 737.757L222.838 744.361L229.885 735.998L232.309 738.04L231.121 751.34L240.05 758.864ZM240.234 723.715L245.042 727.766C246.9 729.332 247.315 731.547 246.055 733.042C244.795 734.537 242.543 734.504 240.684 732.938L235.876 728.887L240.234 723.715Z" fill="white"/>
</svg>
