<svg width="59" height="137" viewBox="0 0 59 137" fill="none" xmlns="http://www.w3.org/2000/svg">
<path fill-rule="evenodd" clip-rule="evenodd" d="M0 0.897949L0.0685859 16.2883L6.26489 16.2574L6.23322 9.15059L8.1496 9.14103L12.8125 16.2247L19.8712 16.1895L14.5974 8.21622C17.2744 6.86388 18.9235 4.21202 18.9085 0.847461C18.9084 0.832847 18.9083 0.818247 18.9082 0.803659L12.5199 0.835516C12.5203 0.850069 12.5205 0.864669 12.5206 0.879316C12.5262 2.14961 11.4763 3.08183 10.0071 3.08916L6.20629 3.10811L6.1963 0.86705L0 0.897949Z" fill="white"/>
<path fill-rule="evenodd" clip-rule="evenodd" d="M46.2067 74.9536C46.2158 74.9536 46.225 74.9536 46.2342 74.9536C52.6608 74.9536 58.0884 68.8764 58.0884 61.6618C58.0884 54.4473 52.6608 48.3701 46.2342 48.3701C46.225 48.3701 46.2158 48.3701 46.2067 48.3701V55.478C46.2158 55.478 46.225 55.478 46.2342 55.478C49.4974 55.478 52.2279 58.3211 52.2279 61.6618C52.2279 65.0026 49.4974 67.8457 46.2342 67.8457C46.225 67.8457 46.2158 67.8457 46.2067 67.8456V74.9536Z" fill="white"/>
<path fill-rule="evenodd" clip-rule="evenodd" d="M34.2746 113.874C34.2669 113.869 34.2591 113.864 34.2513 113.858C28.7926 110.264 21.1561 112.39 17.5634 118.518C13.9707 124.646 15.5545 132.844 21.0132 136.438C21.021 136.443 21.0288 136.449 21.0366 136.454L24.5762 130.416C24.5684 130.411 24.5606 130.406 24.5528 130.401C21.781 128.576 20.8776 124.634 22.5412 121.796C24.2048 118.958 27.9399 118.071 30.7117 119.896C30.7195 119.901 30.7273 119.906 30.735 119.911L34.2746 113.874Z" fill="white"/>
</svg>
