<svg width="284" height="554" viewBox="0 0 284 554" fill="none" xmlns="http://www.w3.org/2000/svg">
<path fill-rule="evenodd" clip-rule="evenodd" d="M152.082 197.34L151.226 213.957L171.367 214.995L170.952 223.046C170.493 231.955 164.257 237.989 155.863 237.556C153.745 237.447 151.801 236.943 150.085 236.106L149.174 253.8C151.024 254.283 152.963 254.583 154.98 254.687C172.197 255.574 185.11 241.639 186.169 221.082L187.298 199.154L152.082 197.34Z" fill="white"/>
<path fill-rule="evenodd" clip-rule="evenodd" d="M181.663 388.877H209.474V376.951H186.643L209.474 360.476V348.55H181.663V360.476H189.683L181.663 366.264V388.877Z" fill="white"/>
<path fill-rule="evenodd" clip-rule="evenodd" d="M68.5286 534.171L88.1539 553.877L96.6039 545.461L80.4931 529.284L108.277 533.836L116.727 525.42L97.102 505.714L88.6519 514.13L94.3116 519.813L84.5512 518.214L68.5286 534.171Z" fill="white"/>
<path d="M173.672 132.243C192.132 132.243 207.683 117.327 207.683 99.6648C207.683 82.0028 192.132 67.1777 173.672 67.1777C155.211 67.1777 139.66 82.0028 139.66 99.6648C139.66 117.327 155.211 132.243 173.672 132.243ZM173.672 116.137C165.123 116.137 157.848 108.633 157.848 99.6648C157.848 90.7881 165.123 83.284 173.672 83.284C182.22 83.284 189.495 90.7881 189.495 99.6648C189.495 108.633 182.22 116.137 173.672 116.137Z" fill="white"/>
<path d="M262.703 327.448C273.94 327.448 283.405 318.634 283.405 308.197C283.405 297.76 273.94 289 262.703 289C251.466 289 242 297.76 242 308.197C242 318.634 251.466 327.448 262.703 327.448ZM262.703 317.931C257.499 317.931 253.071 313.496 253.071 308.197C253.071 302.952 257.499 298.517 262.703 298.517C267.906 298.517 272.334 302.952 272.334 308.197C272.334 313.496 267.906 317.931 262.703 317.931Z" fill="white"/>
<path d="M35 304.863L52.0415 313.323L68.7581 279.65L75.5833 325.01L92.6247 333.47L123.832 270.607L106.791 262.147L90.074 295.82L83.2489 250.46L66.2074 242L35 304.863Z" fill="white"/>
<path d="M38.479 374.714L36.9605 384.856C35.5369 394.364 40.1938 401.948 48.157 403.14C56.1201 404.332 62.7542 398.439 64.1778 388.931L65.6963 378.789L38.479 374.714ZM44.301 383.444L57.5729 385.431L57.0153 389.155C56.3984 393.275 53.2258 395.798 49.3433 395.216C45.4608 394.635 43.1265 391.288 43.7434 387.168L44.301 383.444Z" fill="white"/>
<path fill-rule="evenodd" clip-rule="evenodd" d="M27.3542 180.025L44.6676 207.569L56.4199 200.181L48.4252 187.463L52.0599 185.178L68.8387 192.375L82.2266 183.96L63.2927 175.888C66.8751 170.293 67.0513 163.582 63.2663 157.561C63.2499 157.535 63.2334 157.509 63.2169 157.483L51.1005 165.099C51.1174 165.125 51.1341 165.151 51.1505 165.177C52.5795 167.45 51.6232 170.366 48.8366 172.117L41.6277 176.649L39.1066 172.638L27.3542 180.025Z" fill="white"/>
<path fill-rule="evenodd" clip-rule="evenodd" d="M88.7258 0.000169909C88.6824 5.66584e-05 88.639 0 88.5955 0C58.2019 0 32.5328 27.7209 32.5328 60.6294C32.5328 93.5378 58.2019 121.259 88.5955 121.259C88.639 121.259 88.6824 121.259 88.7258 121.259V88.8363C88.6824 88.8365 88.639 88.8366 88.5955 88.8366C73.1625 88.8366 60.2492 75.8678 60.2492 60.6294C60.2492 45.391 73.1625 32.4221 88.5955 32.4221C88.639 32.4221 88.6824 32.4222 88.7258 32.4224V0.000169909Z" fill="white"/>
<path d="M20.7027 502.355C31.9397 502.355 41.4054 493.541 41.4054 483.104C41.4054 472.668 31.9397 463.907 20.7027 463.907C9.46568 463.907 0 472.668 0 483.104C0 493.541 9.46568 502.355 20.7027 502.355ZM20.7027 492.838C15.4994 492.838 11.071 488.404 11.071 483.104C11.071 477.859 15.4994 473.425 20.7027 473.425C25.9061 473.425 30.3344 477.859 30.3344 483.104C30.3344 488.404 25.9061 492.838 20.7027 492.838Z" fill="white"/>
</svg>
