<svg width="90" height="94" viewBox="0 0 90 94" fill="none" xmlns="http://www.w3.org/2000/svg">
<path fill-rule="evenodd" clip-rule="evenodd" d="M30.7708 0.947266L0.775862 0.947266L0 0.947266L-3.81718e-10 1.72806L-3.80597e-08 78.798L-3.84415e-08 79.5788L0.775862 79.5788L89.2241 79.5788L90 79.5788L90 78.798L90 1.72806L90 0.947266L89.2241 0.947266L48.3219 0.947266L47.5364 1.72806L89.2241 1.72806L89.2241 78.798L0.775862 78.798L0.775862 1.72806L29.9854 1.72806L30.7708 0.947266Z" fill="#343434"/>
<path d="M28.8809 1.00879L30.7922 1.0088L46.9001 27.271L45.1952 27.271L28.8809 1.00879Z" fill="#E3A01E"/>
<path d="M21.7882 70.8606L23.3646 70.8606L23.3646 62.5302L29.5298 70.8606L31.1062 70.8606L31.1062 59.876L29.5298 59.876L29.5298 68.2064L23.3646 59.876L21.7882 59.876L21.7882 70.8606Z" fill="#343434"/>
<path d="M57.8753 63.4576C57.8753 61.363 56.1584 59.876 53.8953 59.876L49.3845 59.876L49.3845 70.8606L50.9609 70.8606L50.9609 67.0392L53.427 67.0392L56.0492 70.8606L57.8597 70.8606L55.1283 66.8793C56.7515 66.4476 57.8753 65.1524 57.8753 63.4576ZM50.9609 61.379L53.6768 61.379C55.222 61.379 56.2677 62.1624 56.2677 63.4576C56.2677 64.7527 55.222 65.5362 53.6768 65.5362L50.9609 65.5362L50.9609 61.379Z" fill="#343434"/>
<path d="M61.4212 70.8606L65.1203 70.8606C68.5853 70.8606 71.0514 68.5742 71.0514 65.3603C71.0514 62.1464 68.5853 59.876 65.1203 59.876L61.4212 59.876L61.4212 70.8606ZM62.9976 69.3896L62.9976 61.347L65.2139 61.347C67.6956 61.347 69.4281 63.0099 69.4281 65.3603C69.4281 67.7267 67.6956 69.3896 65.2139 69.3896L62.9976 69.3896Z" fill="#343434"/>
<path d="M18.8182 93.6456L16.7569 90.8155C17.8621 90.3838 18.5699 89.4364 18.5699 88.2372C18.5699 86.5703 17.2039 85.4071 15.3289 85.4071L11.3678 85.4071L11.3678 93.6456L13.4912 93.6456L13.4912 91.0673L14.5342 91.0673L16.4092 93.6456L18.8182 93.6456ZM13.4912 87.2778L15.1303 87.2778C15.8629 87.2778 16.3844 87.6616 16.3844 88.2372C16.3844 88.8128 15.8629 89.1966 15.1303 89.1966L13.4912 89.1966L13.4912 87.2778Z" fill="#343434"/>
<path d="M28.1247 87.2419L28.1247 85.4071L21.4069 85.4071L21.4069 93.6456L28.1247 93.6456L28.1247 91.8108L23.5303 91.8108L23.5303 90.3598L27.7025 90.3598L27.7025 88.525L23.5303 88.525L23.5303 87.2419L28.1247 87.2419Z" fill="#343434"/>
<path d="M30.9619 93.6456L33.0852 93.6456L33.0852 88.8728L35.5439 93.1659L38.0025 88.8728L38.0025 93.6456L40.1259 93.6456L40.1259 85.4071L38.0025 85.4071L35.5439 89.7002L33.0852 85.4071L30.9619 85.4071L30.9619 93.6456Z" fill="#343434"/>
<path d="M47.5026 93.7895C49.9985 93.7895 52.0971 91.8348 52.0971 89.5203C52.0971 87.2059 49.9985 85.2632 47.5026 85.2632C45.0192 85.2632 42.9206 87.2059 42.9206 89.5203C42.9206 91.8348 45.0192 93.7895 47.5026 93.7895ZM47.5026 91.9307C46.1988 91.9307 45.0937 90.8275 45.0937 89.5203C45.0937 88.2252 46.1988 87.1219 47.5026 87.1219C48.8065 87.1219 49.9116 88.2252 49.9116 89.5203C49.9116 90.8275 48.8065 91.9307 47.5026 91.9307Z" fill="#343434"/>
<path d="M54.872 93.6456L57.9888 93.6456C60.9193 93.6456 62.9806 91.9307 62.9806 89.5203C62.9806 87.11 60.9193 85.4071 57.9888 85.4071L54.872 85.4071L54.872 93.6456ZM56.9954 91.7868L56.9954 87.2658L58.3116 87.2658C59.7645 87.2658 60.8075 88.2012 60.8075 89.5203C60.8075 90.8395 59.7645 91.7868 58.3116 91.7868L56.9954 91.7868Z" fill="#343434"/>
<path d="M72.4769 87.2419L72.4769 85.4071L65.7591 85.4071L65.7591 93.6456L72.4769 93.6456L72.4769 91.8108L67.8825 91.8108L67.8825 90.3598L72.0547 90.3598L72.0547 88.525L67.8825 88.525L67.8825 87.2419L72.4769 87.2419Z" fill="#343434"/>
<path d="M77.3629 91.8108L77.3629 85.4071L75.252 85.4071L75.252 93.6456L81.4731 93.6456L81.4731 91.8108L77.3629 91.8108Z" fill="#343434"/>
<path d="M39.8109 71.3838C42.9877 71.3838 45.6543 68.697 45.6543 65.5157C45.6543 62.3344 42.9877 59.6641 39.8109 59.6641C36.6341 59.6641 33.9346 62.3344 33.9346 65.5157C33.9346 68.697 36.6341 71.3838 39.8109 71.3838ZM39.8109 69.8508C37.5558 69.8508 35.6464 67.8728 35.6464 65.5157C35.6464 63.175 37.5558 61.197 39.8109 61.197C42.066 61.197 43.9589 63.175 43.9589 65.5157C43.9589 67.8728 42.066 69.8508 39.8109 69.8508Z" fill="#E3A01E"/>
</svg>
