<svg width="139" height="809" viewBox="0 0 139 809" fill="none" xmlns="http://www.w3.org/2000/svg">
<path d="M97.3709 753.572L99.925 747.12C102.319 741.071 100.411 735.36 95.3455 733.354C90.2796 731.349 85.0047 734.217 82.6102 740.266L80.0562 746.718L97.3709 753.572ZM94.8706 746.927L86.4275 743.584L87.3653 741.215C88.4029 738.594 90.8802 737.417 93.3501 738.395C95.8201 739.373 96.846 741.936 95.8084 744.557L94.8706 746.927Z" fill="#E3A01E"/>
<path fill-rule="evenodd" clip-rule="evenodd" d="M116.908 795.826L125.021 808.733L130.528 805.271L126.782 799.311L128.485 798.24L136.348 801.613L142.622 797.67L133.749 793.887C135.428 791.265 135.51 788.12 133.737 785.299C133.729 785.287 133.721 785.274 133.713 785.262L128.036 788.831C128.043 788.843 128.051 788.855 128.059 788.868C128.729 789.933 128.28 791.299 126.975 792.12L123.596 794.244L122.415 792.364L116.908 795.826Z" fill="#E3A01E"/>
<path fill-rule="evenodd" clip-rule="evenodd" d="M117.06 0.483887C117.06 0.500101 117.06 0.516318 117.06 0.53254C117.06 11.8789 127.184 21.4616 139.203 21.4616C151.222 21.4616 161.346 11.8789 161.346 0.53254C161.346 0.516318 161.346 0.500101 161.346 0.483887H149.505C149.505 0.500097 149.505 0.516315 149.505 0.53254C149.505 6.29392 144.768 11.1147 139.203 11.1147C133.637 11.1147 128.901 6.29392 128.901 0.53254C128.901 0.516315 128.901 0.500097 128.901 0.483887H117.06Z" fill="#E3A01E"/>
<path fill-rule="evenodd" clip-rule="evenodd" d="M119.272 641.236L134.739 656.766L141.398 650.134L128.701 637.385L150.598 640.972L157.258 634.339L141.791 618.809L135.131 625.441L139.592 629.92L131.9 628.66L119.272 641.236Z" fill="#E3A01E"/>
<path d="M153.119 148.544L154.148 136.725C157.869 137.737 161.591 136.68 164.22 133.559C168.003 129.07 167.188 122.993 162.285 118.861L151.809 110.034L133.377 131.91L139.554 137.115L145.108 130.523L147.018 132.133L146.082 142.615L153.119 148.544ZM153.264 120.843L157.053 124.036C158.518 125.27 158.844 127.015 157.852 128.194C156.859 129.372 155.084 129.346 153.619 128.112L149.83 124.919L153.264 120.843Z" fill="#E3A01E"/>
<path d="M82.231 452.41L95.6616 459.078L108.836 432.539L114.215 468.288L127.646 474.956L152.241 425.412L138.81 418.745L125.635 445.284L120.256 409.535L106.826 402.867L82.231 452.41Z" fill="#E3A01E"/>
<path d="M95.5898 515.567L94.393 523.56C93.2711 531.053 96.9413 537.03 103.217 537.969C109.493 538.909 114.721 534.265 115.843 526.771L117.04 518.778L95.5898 515.567ZM100.178 522.447L110.638 524.013L110.198 526.948C109.712 530.195 107.212 532.183 104.152 531.725C101.092 531.267 99.2525 528.629 99.7387 525.382L100.178 522.447Z" fill="#E3A01E"/>
<path fill-rule="evenodd" clip-rule="evenodd" d="M74.9821 241.603L80.5372 236.153L73.9312 229.42L76.6228 226.779C79.6008 223.858 83.6582 223.754 86.4114 226.561C87.1059 227.268 87.6155 228.057 87.9415 228.889L93.8566 223.085C93.3726 222.333 92.8 221.616 92.1383 220.942C86.4914 215.186 77.6342 215.896 70.762 222.639L63.4316 229.831L74.9821 241.603Z" fill="#E3A01E"/>
<path fill-rule="evenodd" clip-rule="evenodd" d="M86.8223 362.131L100.467 383.838L109.729 378.016L103.428 367.992L106.293 366.192L119.517 371.864L130.068 365.231L115.146 358.87C117.969 354.461 118.108 349.172 115.125 344.426C115.112 344.406 115.099 344.385 115.086 344.365L105.537 350.367C105.55 350.387 105.563 350.408 105.576 350.428C106.703 352.22 105.949 354.518 103.753 355.898L98.0713 359.47L96.0844 356.309L86.8223 362.131Z" fill="#E3A01E"/>
<path fill-rule="evenodd" clip-rule="evenodd" d="M135.19 220.251C135.156 220.251 135.121 220.251 135.087 220.251C111.134 220.251 90.9036 242.098 90.9036 268.034C90.9036 293.969 111.134 315.817 135.087 315.817C135.121 315.817 135.156 315.816 135.19 315.816L135.19 290.264C135.156 290.264 135.121 290.264 135.087 290.264C122.924 290.264 112.747 280.043 112.747 268.034C112.747 256.024 122.924 245.803 135.087 245.803C135.121 245.803 135.156 245.804 135.19 245.804V220.251Z" fill="#E3A01E"/>
<path fill-rule="evenodd" clip-rule="evenodd" d="M117.014 79.8705H138.933V70.4716H120.939L138.933 57.4876V48.0888H117.014V57.4876H123.335L117.014 62.0488V79.8705Z" fill="#E3A01E"/>
<path fill-rule="evenodd" clip-rule="evenodd" d="M0 447.794L15.4669 463.324L22.1265 456.692L9.42936 443.943L31.3264 447.53L37.986 440.897L22.519 425.367L15.8594 431.999L20.3199 436.478L12.6276 435.218L0 447.794Z" fill="#E3A01E"/>
<path d="M81.5802 616.163C90.4362 616.163 97.8962 609.216 97.8962 600.991C97.8962 592.765 90.4362 585.861 81.5802 585.861C72.7242 585.861 65.2642 592.765 65.2642 600.991C65.2642 609.216 72.7242 616.163 81.5802 616.163ZM81.5802 608.662C77.4794 608.662 73.9893 605.167 73.9893 600.991C73.9893 596.857 77.4794 593.362 81.5802 593.362C85.681 593.362 89.1711 596.857 89.1711 600.991C89.1711 605.167 85.681 608.662 81.5802 608.662Z" fill="#E3A01E"/>
<path d="M23.3085 364.764C32.1645 364.764 39.6245 357.818 39.6245 349.592C39.6245 341.367 32.1645 334.463 23.3085 334.463C14.4524 334.463 6.99243 341.367 6.99243 349.592C6.99243 357.818 14.4524 364.764 23.3085 364.764ZM23.3085 357.264C19.2076 357.264 15.7176 353.769 15.7176 349.592C15.7176 345.459 19.2076 341.964 23.3085 341.964C27.4093 341.964 30.8993 345.459 30.8993 349.592C30.8993 353.769 27.4093 357.264 23.3085 357.264Z" fill="#E3A01E"/>
<path d="M53.6097 153.251L67.0403 159.919L80.2148 133.38L85.5938 169.129L99.0244 175.797L123.619 126.253L110.189 119.586L97.0142 146.125L91.6351 110.375L78.2046 103.708L53.6097 153.251Z" fill="#E3A01E"/>
<path d="M72.5651 15.1358L71.3684 23.1289C70.2464 30.6225 73.9166 36.5989 80.1925 37.5385C86.4683 38.4781 91.6967 33.8341 92.8186 26.3405L94.0154 18.3474L72.5651 15.1358ZM77.1535 22.0159L87.6132 23.5819L87.1738 26.5169C86.6876 29.7641 84.1873 31.752 81.1274 31.2939C78.0676 30.8358 76.2279 28.198 76.7141 24.9508L77.1535 22.0159Z" fill="#E3A01E"/>
</svg>
